<?xml version="1.0" standalone="no"?>
<!DOCTYPE svg PUBLIC "-//W3C//DTD SVG 20010904//EN"
 "http://www.w3.org/TR/2001/REC-SVG-20010904/DTD/svg10.dtd">
<svg version="1.0" xmlns="http://www.w3.org/2000/svg"
 width="225.000000pt" height="225.000000pt" viewBox="0 0 225.000000 225.000000"
 preserveAspectRatio="xMidYMid meet">

<g transform="translate(0.000000,225.000000) scale(0.100000,-0.100000)"
fill="#000000" stroke="none">
<path d="M0 1125 l0 -1125 1125 0 1125 0 0 1125 0 1125 -1125 0 -1125 0 0
-1125z m835 450 c28 -14 67 -36 88 -48 l38 -22 24 28 c13 15 27 27 30 27 3 0
5 -55 4 -122 0 -93 -3 -117 -10 -98 -31 77 -66 134 -100 164 -102 93 -208 106
-298 39 -42 -33 -75 -104 -67 -147 14 -75 74 -115 361 -246 49 -23 103 -53
119 -68 97 -92 86 -271 -24 -365 -115 -98 -290 -91 -418 17 -24 20 -50 36 -57
36 -7 0 -23 -12 -34 -27 l-20 -28 0 140 0 140 22 -65 c59 -175 163 -264 307
-263 132 0 217 86 196 197 -13 68 -66 112 -242 197 -234 112 -283 165 -284
297 0 71 14 112 56 161 67 80 210 106 309 56z m680 11 c19 -8 55 -29 79 -45
55 -38 69 -38 95 -3 l20 27 0 -130 c-1 -98 -3 -121 -10 -92 -36 151 -194 271
-314 238 -75 -20 -132 -75 -142 -136 -16 -96 26 -137 256 -247 101 -49 197
-98 212 -109 88 -62 101 -233 26 -331 -50 -64 -124 -101 -216 -106 -94 -5
-148 9 -203 53 -84 68 -120 77 -133 34 -16 -50 -25 -8 -25 116 0 130 11 175
24 98 14 -88 93 -205 171 -253 49 -30 130 -43 193 -29 90 18 142 79 142 165 0
90 -61 146 -252 230 -173 77 -231 124 -263 215 -31 86 -13 167 52 239 27 30
60 54 86 63 55 20 158 21 202 3z m-360 -450 c0 -10 -8 -24 -18 -30 -14 -9 -21
-7 -32 7 -19 27 -8 49 24 45 18 -2 26 -9 26 -22z"/>
</g>
</svg>
